<svg viewBox="0 0 500 500" style="background-color:#ffffff00" xmlns="http://www.w3.org/2000/svg" width="500" height="500"><defs><mask id="a"><path d="M158 398c104 85 275-19 229.75-165.577 0 0-85.377 32.27-131 40.606-55.25 5.97-44.894-109.66-44.894-109.66 15.42 17.934 40.478 26.163 64.495 19.01 0 0-28.117-31.555-34.81-53.164-7.117-22.987-1.57-64.323-1.57-64.323-30.08 9.332-47.77 39.695-41.886 69.974C117 148 50.237 309.925 158 398z" fill="#fff"/></mask></defs><g mask="url(#a)"><path d="M385.265 439.252c-14.295 21.886-127.17 56.043-175.43 44.387-67.294-16.255-66.972-279.71-14.914-307.606 35.68-19.12 114.48-46.526 140.458-12.83 25.962 33.677 76.96 234.603 49.887 276.048z" fill="#408ebe"/><path d="M467.297 314.787c-14.04 22.403-60.994 50.715-110.546 56.38-68.73 7.86-267.338-152.583-229.57-197.237 25.986-30.722 43.367-63.57 137.93-77.23 42.616-6.158 244.106 151.195 202.187 218.087z" fill="#f75a2a"/><path d="M274.853 378.687c-13.248 22.663-124.373 61.212-172.69 51.348-66.726-13.623-113.46-271.042-31.557-305.16 37.098-15.456 110.72-53.874 138.602-21.727 27.983 32.266 90.822 232.468 65.645 275.54z" fill="#a2df3a"/><path d="M213.024 108.263c-50.527 16.423-65.564 41.69-85.844 65.667-28.874 34.138 57.83 163.155 131.02 218.714 8.28-4.93 14.178-9.723 16.653-13.957 24.085-41.203-32.387-226.218-61.83-270.424z" fill="#489801"/><path d="M376.55 155.443c-7.15 25.47-29.697 129.815-79.246 135.694-68.724 8.153-191.22-162.313-153.434-207.13 25.997-30.834.295-46.324 116.67-67.284 54.727-9.857 149.11 20.784 116.01 138.72z" fill="#f35be4"/><path d="M134.48 165.056c35.874 60.494 116.457 131.582 162.824 126.08 42.208-5.007 66.11-81.15 75.592-119.63-42.998-43.133-88.452-77.6-107.785-74.807-85.52 12.354-107.915 40.386-130.63 68.356z" fill="#ec489f"/><path d="M274.01 288.63c-14.013-73.462-46.704-164.613-64.802-185.482-18.066-20.83-56.67-14.46-90.843-1.61-18.036 46.79 86.403 167.17 155.646 187.09z" fill="#c02813"/><path d="M237.862 157.76c-16.34 5.43-29.172 11.82-40.15 17.704-37.886 20.3-50.593 165.67-27.618 249.31 47.24-10.48 152.498-49.104 161.118-63.85 18.476-31.607-65.572-130.76-93.35-203.163z" fill="#59d6ec"/><path d="M392.95 386.14c-3.597-75.463-37.606-196.875-57.262-222.372-25.98-33.697-107.427-13.806-142.92 11.463C165 195 163.492 230.55 159.33 281.684c44.57 68.55 207.723 121.114 233.62 104.456z" fill="#fca22a"/><path d="M352.693 200.592c-8.386-25.92-9.435-25.422-16.237-34.245-25.98-33.698-86.792-21.796-122.474-2.676-9.703 5.2 44.78 80.08 78.948 75.996 28.104-3.36 46.743-4.772 59.763-39.074z" fill="#f7cd69"/></g></svg>