<?xml version="1.0" standalone="no"?><!-- Generator: Adobe Fireworks CS5, Export SVG Extension by Aaron Beall (http://fireworks.abeall.com) . Version: 0.6.1  --><!DOCTYPE svg PUBLIC "-//W3C//DTD SVG 1.1//EN" "http://www.w3.org/Graphics/SVG/1.1/DTD/svg11.dtd"><svg id="kraiom-square-Page%201" viewBox="0 0 500 500" style="background-color:#ffffff00" version="1.1"	xmlns="http://www.w3.org/2000/svg" xmlns:xlink="http://www.w3.org/1999/xlink" xml:space="preserve"	x="0px" y="0px" width="500px" height="500px">	<defs>	<mask id="mask1">		<path d="M 135.47 369.801 L 135.7459 370.1187 L 135.9404 370.3454 L 136.2113 370.6466 L 136.9952 371.5155 C 143.7254 378.9485 151.1579 385.6469 159.1487 391.5248 C 160.563 392.5651 162.0005 393.5865 163.449 394.5752 C 198.9355 418.799 244.4642 427.4336 288.4948 414.3214 L 289.3062 414.0746 C 366.5804 390.5803 418.836 300.5987 385.7513 229.4227 C 385.7513 229.4227 300.3732 261.6925 254.7501 270.0286 C 241.6934 271.8801 223.5232 257.1457 219.7243 249.7325 C 218.3298 245.9181 216.8357 242.4532 215.2641 239.3185 C 210.5554 226.0219 208.6578 211.3683 208.1059 198.3375 C 208.6107 177.1624 209.8562 160.3703 209.8562 160.3703 C 225.2746 178.3045 250.3338 186.5332 274.3506 179.3794 C 274.3506 179.3794 246.2329 147.8252 239.5414 126.2161 C 232.4232 103.229 237.9697 61.8928 237.9697 61.8928 C 207.8893 71.2249 190.2001 101.5881 196.0839 131.8674 C 185.1376 134.146 176.0114 140.0974 167.0374 145.6505 C 167.0374 145.6505 100.6667 189.3333 98.5713 268.4098 L 98.0047 269.0645 C 97.9042 283.9012 100.0549 299.022 104.6881 313.9843 L 104.9407 314.8001 L 105.006 315.0112 L 105.1933 315.6159 L 105.446 316.432 C 111.8628 336.7488 122.2443 354.733 135.47 369.801 Z" fill="#ffffff"/>	</mask>	</defs>	<g mask="url(#mask1)">		<path d="M 385.265 439.2522 C 370.9697 461.1381 258.0941 495.2953 209.8335 483.6386 C 142.5414 467.385 142.8628 203.9296 194.9214 176.0338 C 230.6007 156.915 309.399 129.5078 335.3775 163.205 C 361.3395 196.8811 412.3367 397.8071 385.265 439.2522 Z" fill="#408ebe"/>		<path d="M 467.2966 314.7866 C 453.2569 337.19 406.3031 365.5021 356.7506 371.1683 C 288.0213 379.0277 89.4117 218.5841 127.1804 173.9303 C 153.1655 143.2078 170.5471 110.3605 265.111 96.6988 C 307.7264 90.5422 509.216 247.895 467.2966 314.7866 Z" fill="#f75a2a"/>		<path d="M 274.8529 378.687 C 261.605 401.3504 150.4805 439.8992 102.1642 430.0348 C 35.4373 416.4123 -11.2978 158.9931 70.6055 124.8736 C 107.7038 109.419 181.3269 71.0009 209.2075 103.1481 C 237.1911 135.414 300.0301 335.6158 274.8529 378.687 Z" fill="#a2df3a"/>		<path d="M 213.0243 108.263 C 162.4968 124.6864 147.4599 149.9534 127.1804 173.9303 C 98.3064 208.0679 185.0108 337.0854 258.2015 392.6444 C 266.481 387.7129 272.3781 382.9206 274.8529 378.687 C 298.9383 337.4836 242.4661 152.4691 213.0243 108.263 Z" fill="#489801"/>		<path d="M 376.5491 155.4433 C 369.4005 180.9131 346.8529 285.2583 297.3039 291.1368 C 228.5797 299.2902 106.0835 128.824 143.8696 84.0074 C 169.867 53.173 144.1652 37.6831 260.5415 16.7227 C 315.2666 6.8662 409.6508 37.5067 376.5491 155.4433 Z" fill="#f35be4"/>		<path d="M 134.4792 165.0561 C 170.3539 225.5501 250.9369 296.6378 297.3039 291.1368 C 339.512 286.1291 363.4138 209.9866 372.8964 171.5072 C 329.8985 128.3731 284.4439 93.9059 265.111 96.6988 C 179.5914 109.0539 157.1948 137.0858 134.4792 165.0561 Z" fill="#ec489f"/>		<path d="M 274.0108 288.6291 C 259.9966 215.1679 227.3063 124.0167 209.2075 103.1481 C 191.1424 82.3184 152.539 88.6883 118.3648 101.5369 C 100.3289 148.3292 204.7675 268.7072 274.0108 288.6291 Z" fill="#c02813"/>		<path d="M 237.862 157.7614 C 221.5231 163.1889 208.69 169.5812 197.7112 175.4644 C 159.8261 195.7652 147.1193 341.134 170.0938 424.7732 C 217.3342 414.2937 322.5921 375.6695 331.2117 360.9242 C 349.6881 329.3174 265.6397 230.1631 237.862 157.7614 Z" fill="#59d6ec"/>		<path d="M 392.9513 386.1388 C 389.3533 310.6771 355.3439 189.2648 335.6876 163.7682 C 309.7088 130.0706 224.7276 145.619 192.7683 175.2306 C 176.5628 190.2457 163.492 230.5489 159.331 281.6826 C 203.9002 350.2316 367.0533 402.7973 392.9513 386.1388 Z" fill="#fca22a"/>		<path d="M 352.6933 196.5918 C 344.3073 170.6711 343.2581 171.1702 336.4558 162.3475 C 310.4759 128.6491 249.6639 140.5507 213.9816 159.6714 C 204.2792 164.8708 258.7611 239.7513 292.9303 235.6658 C 321.0338 232.3053 339.6729 230.894 352.6933 196.5918 Z" fill="#f7cd69"/>	</g></svg>