<?xml version="1.0" standalone="no"?><!-- Generator: Adobe Fireworks CS5, Export SVG Extension by Aaron Beall (http://fireworks.abeall.com) . Version: 0.6.1  --><!DOCTYPE svg PUBLIC "-//W3C//DTD SVG 1.1//EN" "http://www.w3.org/Graphics/SVG/1.1/DTD/svg11.dtd"><svg id="kraiom-square-Page%201" viewBox="0 0 500 500" style="background-color:#ffffff00" version="1.1"	xmlns="http://www.w3.org/2000/svg" xmlns:xlink="http://www.w3.org/1999/xlink" xml:space="preserve"	x="0px" y="0px" width="500px" height="500px">	<defs>	<mask id="mask1">		<path d="M 158 398 C 262 483 433 379 387.7513 232.4227 C 387.7513 232.4227 302.3732 264.6925 256.7501 273.0286 C 201.5 279 211.8562 163.3703 211.8562 163.3703 C 227.2746 181.3045 252.3338 189.5332 276.3506 182.3794 C 276.3506 182.3794 248.2329 150.8252 241.5414 129.2161 C 234.4232 106.229 239.9697 64.8928 239.9697 64.8928 C 209.8893 74.2249 192.2001 104.5881 198.0839 134.8674 C 117 148 50.2374 309.9248 158 398 Z" fill="#ffffff"/>	</mask>	</defs>	<g mask="url(#mask1)">		<path d="M 385.265 439.2522 C 370.9697 461.1381 258.0941 495.2953 209.8335 483.6386 C 142.5414 467.385 142.8628 203.9296 194.9214 176.0338 C 230.6007 156.915 309.399 129.5078 335.3775 163.205 C 361.3395 196.8811 412.3367 397.8071 385.265 439.2522 Z" fill="#408ebe"/>		<path d="M 467.2966 314.7866 C 453.2569 337.19 406.3031 365.5021 356.7506 371.1683 C 288.0213 379.0277 89.4117 218.5841 127.1804 173.9303 C 153.1655 143.2078 170.5471 110.3605 265.111 96.6988 C 307.7264 90.5422 509.216 247.895 467.2966 314.7866 Z" fill="#f75a2a"/>		<path d="M 274.8529 378.687 C 261.605 401.3504 150.4805 439.8992 102.1642 430.0348 C 35.4373 416.4123 -11.2978 158.9931 70.6055 124.8736 C 107.7038 109.419 181.3269 71.0009 209.2075 103.1481 C 237.1911 135.414 300.0301 335.6158 274.8529 378.687 Z" fill="#a2df3a"/>		<path d="M 213.0243 108.263 C 162.4968 124.6864 147.4599 149.9534 127.1804 173.9303 C 98.3064 208.0679 185.0108 337.0854 258.2015 392.6444 C 266.481 387.7129 272.3781 382.9206 274.8529 378.687 C 298.9383 337.4836 242.4661 152.4691 213.0243 108.263 Z" fill="#489801"/>		<path d="M 376.5491 155.4433 C 369.4005 180.9131 346.8529 285.2583 297.3039 291.1368 C 228.5797 299.2902 106.0835 128.824 143.8696 84.0074 C 169.867 53.173 144.1652 37.6831 260.5415 16.7227 C 315.2666 6.8662 409.6508 37.5067 376.5491 155.4433 Z" fill="#f35be4"/>		<path d="M 134.4792 165.0561 C 170.3539 225.5501 250.9369 296.6378 297.3039 291.1368 C 339.512 286.1291 363.4138 209.9866 372.8964 171.5072 C 329.8985 128.3731 284.4439 93.9059 265.111 96.6988 C 179.5914 109.0539 157.1948 137.0858 134.4792 165.0561 Z" fill="#ec489f"/>		<path d="M 274.0108 288.6291 C 259.9966 215.1679 227.3063 124.0167 209.2075 103.1481 C 191.1424 82.3184 152.539 88.6883 118.3648 101.5369 C 100.3289 148.3292 204.7675 268.7072 274.0108 288.6291 Z" fill="#c02813"/>		<path d="M 237.862 157.7614 C 221.5231 163.1889 208.69 169.5812 197.7112 175.4644 C 159.8261 195.7652 147.1193 341.134 170.0938 424.7732 C 217.3342 414.2937 322.5921 375.6695 331.2117 360.9242 C 349.6881 329.3174 265.6397 230.1631 237.862 157.7614 Z" fill="#59d6ec"/>		<path d="M 392.9513 386.1388 C 389.3533 310.6771 355.3439 189.2648 335.6876 163.7682 C 309.7088 130.0706 228.2611 149.9619 192.7683 175.2306 C 165 195 163.492 230.5489 159.331 281.6826 C 203.9002 350.2316 367.0533 402.7973 392.9513 386.1388 Z" fill="#fca22a"/>		<path d="M 352.6933 200.5918 C 344.3073 174.6711 343.2581 175.1702 336.4558 166.3475 C 310.4759 132.6491 249.6639 144.5507 213.9816 163.6714 C 204.2792 168.8708 258.7611 243.7513 292.9303 239.6658 C 321.0338 236.3053 339.6729 234.894 352.6933 200.5918 Z" fill="#f7cd69"/>	</g></svg>